Coordinates
version=1
nRows=4
nColumns=114
inDegrees=yes

Units are S.I. units (second, meters, Newtons, ...)
If the header above contains a line with 'inDegrees', this indicates whether rotational values are in degrees (yes) or radians (no).

endheader 
time	pelvis_tilt	pelvis_list	pelvis_rotation	pelvis_tx	pelvis_ty	pelvis_tz	hip_flexion_l	hip_adduction_l	hip_rotation_l	hip_flexion_r	hip_adduction_r	hip_rotation_r	knee_angle_l	knee_angle_r	ankle_angle_l	ankle_angle_r	subtalar_angle_l	subtalar_angle_r	mtp_angle_l	mtp_angle_r	lumbar_extension	lumbar_bending	lumbar_rotation	arm_flex_l	arm_add_l	arm_rot_l	arm_flex_r	arm_add_r	arm_rot_r	elbow_flex_l	elbow_flex_r	pro_sup_l	pro_sup_r	addbrev_l/activation	addlong_l/activation	addmagDist_l/activation	addmagIsch_l/activation	addmagMid_l/activation	addmagProx_l/activation	bflh_l/activation	bfsh_l/activation	edl_l/activation	ehl_l/activation	fdl_l/activation	fhl_l/activation	gaslat_l/activation	gasmed_l/activation	glmax1_l/activation	glmax2_l/activation	glmax3_l/activation	glmed1_l/activation	glmed2_l/activation	glmed3_l/activation	glmin1_l/activation	glmin2_l/activation	glmin3_l/activation	grac_l/activation	iliacus_l/activation	perbrev_l/activation	perlong_l/activation	piri_l/activation	psoas_l/activation	recfem_l/activation	sart_l/activation	semimem_l/activation	semiten_l/activation	soleus_l/activation	tfl_l/activation	tibant_l/activation	tibpost_l/activation	vasint_l/activation	vaslat_l/activation	vasmed_l/activation	addbrev_r/activation	addlong_r/activation	addmagDist_r/activation	addmagIsch_r/activation	addmagMid_r/activation	addmagProx_r/activation	bflh_r/activation	bfsh_r/activation	edl_r/activation	ehl_r/activation	fdl_r/activation	fhl_r/activation	gaslat_r/activation	gasmed_r/activation	glmax1_r/activation	glmax2_r/activation	glmax3_r/activation	glmed1_r/activation	glmed2_r/activation	glmed3_r/activation	glmin1_r/activation	glmin2_r/activation	glmin3_r/activation	grac_r/activation	iliacus_r/activation	perbrev_r/activation	perlong_r/activation	piri_r/activation	psoas_r/activation	recfem_r/activation	sart_r/activation	semimem_r/activation	semiten_r/activation	soleus_r/activation	tfl_r/activation	tibant_r/activation	tibpost_r/activation	vasint_r/activation	vaslat_r/activation	vasmed_r/activation	
          6.35000000	        -18.36905113	        -23.07852476	        372.50533794	         -2.71668385	          0.88674063	          0.25095969	        -16.85328936	        -12.26304548	         -5.40079268	         51.80156291	          2.94202187	        -11.55409107	         40.29378249	         27.93736177	        -49.99999858	         -0.06449740	         -8.29311795	         -1.61502277	        -44.99996533	        -44.99975428	        -20.10403886	         37.98650815	        -11.80450817	       -336.64939620	        -14.83350634	         19.78813621	       -164.76751780	        196.89427757	       -201.65926131	         83.25199353	         57.25360371	         79.30445710	         71.73506928	          0.10418096	          0.09239381	          0.01199565	          0.01198714	          0.01204785	          0.04968432	          0.01013802	          0.04541134	          0.35473210	          0.01017334	          0.02077300	          0.02078790	          0.06235155	          0.11576909	          0.01001954	          0.01001469	          0.01003962	          0.01001038	          0.01001288	          0.01001058	          0.01004103	          0.01001921	          0.01001870	          0.02040351	          0.02033844	          0.01171987	          0.01101512	          0.01002711	          0.02014260	          0.01195729	          0.01003341	          0.02903258	          0.04476707	          0.02090893	          0.67078630	          0.01011862	          0.02078724	          0.01199067	          0.01200224	          0.01199541	          0.01187342	          0.01216197	          0.01608257	          0.03487536	          0.01966125	          0.01032446	          0.23784716	          0.01005025	          0.79089452	          0.15610515	          0.01216871	          0.01217372	          0.01442584	          0.01442582	          0.01024258	          0.01015475	          0.01285454	          0.01736914	          0.01457514	          0.01212664	          0.01746704	          0.02118453	          0.04201234	          0.01024001	          0.17040059	          0.02990089	          0.04736967	          0.01012821	          0.36861520	          0.02621088	          0.01003268	          0.17284680	          0.02741529	          0.01441992	          0.02977870	          0.26095642	          0.01269215	          0.01200360	          0.01200667	          0.01200519	
          6.36003401	        -18.27192115	        -23.03108638	        370.55811977	         -2.64137744	          0.90788998	          0.24641073	        -11.07579593	        -12.47263681	         -7.23237862	         47.25070824	          5.12688907	        -13.23443005	         47.24542809	         28.39780447	        -47.50225355	          3.16846178	        -10.17338514	         -2.06568684	        -39.61757494	        -39.53639394	        -19.49509670	         36.67955875	         -9.89113196	       -350.57309905	        -14.98339128	         23.72663291	       -161.77343249	        196.68173297	       -192.18276842	         79.99942309	         58.09125401	         81.05953424	         73.91327883	          0.08697870	          0.12124114	          0.01001200	          0.01000720	          0.01006069	          0.04149737	          0.01002320	          0.68392810	          0.78631863	          0.01005002	          0.01731261	          0.01731824	          0.05192446	          0.09690882	          0.01000854	          0.01000415	          0.01000319	          0.01441568	          0.01005165	          0.01002515	          0.08047282	          0.06082197	          0.02401573	          0.14248811	          0.63796387	          0.01121034	          0.03223390	          0.03311777	          0.67551365	          0.01000851	          0.67220688	          0.02686765	          0.41793741	          0.02075850	          0.67099837	          0.01002864	          0.01731458	          0.01000204	          0.01000071	          0.01000150	          0.01007610	          0.01020529	          0.01340116	          0.02904761	          0.01638849	          0.01061936	          0.24802218	          0.11025837	          0.65881404	          0.26226151	          0.01014468	          0.01014095	          0.01201384	          0.01201358	          0.01003999	          0.01002338	          0.01071477	          0.01446859	          0.01215311	          0.01020047	          0.01455561	          0.01765530	          0.03501852	          0.01037243	          0.14191476	          0.02492843	          0.03945213	          0.01258403	          0.60170516	          0.02189325	          0.47499284	          0.21935813	          0.03085669	          0.01200856	          0.02481109	          0.52253282	          0.01057149	          0.01000662	          0.01000209	          0.01000485	
          6.37006803	        -17.95544825	        -23.61875397	        369.52402227	         -2.56795250	          0.92679612	          0.24145763	         -5.05059250	        -14.18004485	         -8.83590981	         43.15136934	          7.06963379	        -15.16712355	         54.25932287	         30.55689813	        -44.76038623	          7.31646615	        -12.16540486	         -3.88892806	        -34.84549441	        -34.76726069	        -18.85564947	         36.22968430	         -8.39035582	       -362.45452286	        -14.52537782	         25.43465614	       -159.49275598	        196.12206660	       -183.61305280	         76.74014917	         60.94270106	         82.90324552	         76.41329912	          0.37013255	          0.70903232	          0.01000421	          0.01000292	          0.01000965	          0.03464735	          0.01000854	          0.59072100	          0.92925384	          0.01001764	          0.01441934	          0.01442301	          0.04324106	          0.08070257	          0.01000440	          0.01000211	          0.01000161	          0.01202889	          0.01003032	          0.01001362	          0.06703151	          0.05068500	          0.02020737	          0.71609460	          0.88010881	          0.26087837	          0.03600986	          0.03796464	          0.89255981	          0.01000817	          0.89146883	          0.03436524	          0.47417069	          0.01730927	          0.55879016	          0.01000892	          0.01441951	          0.01000114	          0.01000041	          0.01000084	          0.01019520	          0.01035197	          0.01117677	          0.02419594	          0.01366557	          0.01106555	          0.20655155	          0.09183318	          0.54866126	          0.27092753	          0.01000710	          0.01000433	          0.01000564	          0.01000495	          0.01003293	          0.01002069	          0.01002766	          0.01205267	          0.01014242	          0.01007294	          0.01212904	          0.01471252	          0.02919228	          0.01024557	          0.11818418	          0.02079651	          0.03715175	          0.13287830	          0.50108350	          0.16138753	          0.39556756	          0.19477398	          0.02787180	          0.01000074	          0.02066603	          0.67203658	          0.01000188	          0.01001302	          0.01000439	          0.01000925	
          6.38010204	        -17.16632937	        -23.89716968	        369.04114185	         -2.49631742	          0.94438978	          0.23631060	          0.73506700	        -15.78314400	         -9.55273298	         39.00484954	          8.39502850	        -16.44395338	         61.11202047	         33.56227238	        -42.02956271	         11.81331345	        -15.19388512	         -6.19945829	        -30.61884725	        -30.58188567	        -18.81229544	         35.42291496	         -6.90208939	       -371.61802300	        -14.07579474	         26.94705813	       -157.63581107	        194.67671267	       -177.94307949	         72.60967839	         64.75211622	         84.44998169	         78.93631470	          0.30831970	          0.87468134	          0.01000425	          0.01000257	          0.01001636	          0.32712255	          0.01000715	          0.86447265	          0.97657684	          0.27008072	          0.01200897	          0.01201144	          0.03600981	          0.06720646	          0.01000326	          0.01000164	          0.01000147	          0.01002601	          0.01000951	          0.01000644	          0.05582764	          0.04221886	          0.01687059	          0.59655681	          0.90200208	          0.21726255	          0.02999166	          0.03161886	          0.96442125	          0.01000965	          0.96406194	          0.08104263	          0.68936739	          0.01441957	          0.46534573	          0.02488206	          0.01200833	          0.01000108	          0.01000040	          0.01000080	          0.01003845	          0.01003946	          0.01006641	          0.02015840	          0.01141362	          0.01046179	          0.19084730	          0.07648861	          0.45692041	          0.22580164	          0.01013305	          0.01000631	          0.01000148	          0.01000081	          0.01271709	          0.01019112	          0.01015657	          0.01004583	          0.01014632	          0.07516912	          0.01011363	          0.01226575	          0.02441727	          0.01011486	          0.09842116	          0.01732123	          0.03093915	          0.21436360	          0.41728736	          0.13441179	          0.32942156	          0.28742985	          0.02867199	          0.01000049	          0.01721277	          0.76720224	          0.01000284	          0.04367070	          0.05233686	          0.04579811	
